HIERARCHY
ROOT Hips
{
  OFFSET 59.4819 94.0278 3.89058
  CHANNELS 6 Xposition Yposition Zposition Zrotation Xrotation Yrotation
  JOINT spine
  {
    OFFSET 0 7.80059 0.448573
    CHANNELS 3 Zrotation Xrotation Yrotation
    JOINT spine1
    {
      OFFSET 0 10.1364 0
      CHANNELS 3 Zrotation Xrotation Yrotation
      JOINT spine2
      {
        OFFSET 0 9.71251 0
        CHANNELS 3 Zrotation Xrotation Yrotation
        JOINT Neck
        {
          OFFSET 0 24.9361 1.18887
          CHANNELS 3 Zrotation Xrotation Yrotation
          JOINT Head
          {
            OFFSET 0 7.53384 0
            CHANNELS 3 Zrotation Xrotation Yrotation
            End Site
            {
              OFFSET 0 18.2361 -6.01402
            }
          }
        }
        JOINT RightShoulder
        {
          OFFSET -4.08965 10.4888 -0.569457
          CHANNELS 3 Zrotation Xrotation Yrotation
          JOINT RightArm
          {
            OFFSET 0 13.757 0
            CHANNELS 3 Zrotation Xrotation Yrotation
            JOINT RightArmRoll
            {
              OFFSET 0 6.94478 0
              CHANNELS 3 Zrotation Xrotation Yrotation
              JOINT RightForeArm
              {
                OFFSET 0 20.2277 0
                CHANNELS 3 Zrotation Xrotation Yrotation
                JOINT RightForeArmRoll
                {
                  OFFSET 0 7.79312 0
                  CHANNELS 3 Zrotation Xrotation Yrotation
                  JOINT RightHand
                  {
                    OFFSET 0 15.6391 0
                    CHANNELS 3 Zrotation Xrotation Yrotation
                    End Site
                    {
                      OFFSET 0 0 0
                    }
                  }
                }
              }
            }
          }
        }
        JOINT LeftShoulder
        {
          OFFSET 4.08965 10.4888 -0.569457
          CHANNELS 3 Zrotation Xrotation Yrotation
          JOINT LeftArm
          {
            OFFSET 0 13.757 0
            CHANNELS 3 Zrotation Xrotation Yrotation
            JOINT LeftArmRoll
            {
              OFFSET 0 6.94478 0
              CHANNELS 3 Zrotation Xrotation Yrotation
              JOINT LeftForeArm
              {
                OFFSET 0 20.2277 0
                CHANNELS 3 Zrotation Xrotation Yrotation
                JOINT LeftForeArmRoll
                {
                  OFFSET 0 7.79312 0
                  CHANNELS 3 Zrotation Xrotation Yrotation
                  JOINT LeftHand
                  {
                    OFFSET 0 15.6391 0
                    CHANNELS 3 Zrotation Xrotation Yrotation
                    End Site
                    {
                      OFFSET 0 0 0
                    }
                  }
                }
              }
            }
          }
        }
      }
    }
  }
  JOINT RightUpLeg
  {
    OFFSET -6.91416 -1.26788 -1.06358
    CHANNELS 3 Zrotation Xrotation Yrotation
    JOINT RightUpLegRoll
    {
      OFFSET 0 18.3378 0
      CHANNELS 3 Zrotation Xrotation Yrotation
      JOINT RightLeg
      {
        OFFSET 0 -22.7085 0
        CHANNELS 3 Zrotation Xrotation Yrotation
        JOINT RightLegRoll
        {
          OFFSET 0 22.7828 0
          CHANNELS 3 Zrotation Xrotation Yrotation
          JOINT RightFoot
          {
            OFFSET 0 18.9629 0
            CHANNELS 3 Zrotation Xrotation Yrotation
            JOINT RightToeBase
            {
              OFFSET 0 15.852 0
              CHANNELS 3 Zrotation Xrotation Yrotation
              End Site
              {
                OFFSET 0.00671906 7.67701 -0.884892
              }
            }
          }
        }
      }
    }
  }
  JOINT LeftUpLeg
  {
    OFFSET 6.91416 -1.26788 -1.06358
    CHANNELS 3 Zrotation Xrotation Yrotation
    JOINT LeftUpLegRoll
    {
      OFFSET 0 18.3379 0
      CHANNELS 3 Zrotation Xrotation Yrotation
      JOINT LeftLeg
      {
        OFFSET 0 22.7084 0
        CHANNELS 3 Zrotation Xrotation Yrotation
        JOINT LeftLegRoll
        {
          OFFSET 0 22.9934 0
          CHANNELS 3 Zrotation Xrotation Yrotation
          JOINT LeftFoot
          {
            OFFSET 0 18.7522 0
            CHANNELS 3 Zrotation Xrotation Yrotation
            JOINT LeftToeBase
            {
              OFFSET 0 15.852 0
              CHANNELS 3 Zrotation Xrotation Yrotation
              End Site
              {
                OFFSET -0.030112 7.67701 -0.884892
              }
            }
          }
        }
      }
    }
  }
}
MOTION
Frames: 10
Frame Time: 0.00208333
56.5859 87.3747 6.6323 -1.12056 -1.22246 -1.96283 0.360305 -1.42905 0.481731 0.727831 1.14747 0.92564 0.717221 2.79238 0.91392 -2.96114 9.44913 -2.50552 3.3746 -12.58 -2.47626 25.9962 -15.0962 -11.902 1.58997 37.5738 90.6317 -5.2716e-006 6.48848e-007 -1.09249e-006 -3.17624 48.0987 2.84856 -5.95399e-006 -1.53422e-006 -3 8.02888 -4.95157 0.697755 -27.1969 -14.1629 10.7284 -26.5871 32.5478 -60.7161 -2.89202e-006 -2.14668e-007 -6.08396e-006 7.53208 54.3445 -6.21566 1.31664e-005 8.5304e-006 3 -8.02989 -4.95142 -0.697658 163.739 15.2031 4.38293 180 7.01448e-015 178.557 -170.396 40.2172 176.036 -3.07233e-007 -1.92232e-007 3.25278 -33.7285 78.946 36.8338 8.17669 27.6073 -0.89037 -159.86 18.6557 -6.67737 4.54188e-006 -4.6773e-006 -1.25307 3.79554 -46.124 1.87237 -2.78689e-006 1.72279e-006 -2.83403 33.9876 78.9154 -36.8919 -8.13533 28.277 -0.0210619 
56.5497 87.7224 6.64131 -1.20195 -1.21619 -1.91903 0.374648 -1.44867 0.463705 0.756377 1.1082 0.888231 0.746227 2.75311 0.876007 -2.70848 9.60685 -2.52468 3.06891 -12.6772 -2.50029 26.3256 -15.0367 -11.8027 1.99375 37.5806 90.5333 -5.2716e-006 6.48848e-007 -1.09249e-006 -3.22054 48.0699 2.86669 -5.95399e-006 -1.53422e-006 -3 8.02888 -4.95157 0.697755 -27.3 -14.0841 10.6317 -27.1459 32.4816 -60.3238 -2.89202e-006 -2.14668e-007 -6.08396e-006 7.50025 54.2503 -6.16955 1.31664e-005 8.5304e-006 3 -8.02989 -4.95142 -0.697658 163.782 14.9379 4.43571 180 7.01449e-015 178.561 -170.798 39.4126 176.202 -3.07233e-007 -1.92233e-007 3.00886 -31.2857 78.0462 34.1339 8.16411 27.9143 -0.54617 -159.744 18.2939 -6.74511 4.54188e-006 -4.6773e-006 -1.25445 3.50036 -45.1585 1.76117 -2.7869e-006 1.7228e-006 -2.65182 31.8275 78.1365 -34.5181 -8.12161 28.461 -0.239346 
56.5743 88.0404 6.6784 -1.27986 -1.20883 -1.87323 0.387945 -1.46836 0.445729 0.782807 1.06877 0.851031 0.773113 2.71368 0.838339 -2.46598 9.75837 -2.54475 2.77821 -12.7667 -2.52467 26.6544 -14.9782 -11.7053 2.42307 37.5886 90.4048 -5.2716e-006 6.48848e-007 -1.09249e-006 -3.25618 48.0671 2.88029 -5.95399e-006 -1.53422e-006 -3 8.02888 -4.95157 0.697755 -27.4097 -14.0042 10.5336 -27.7052 32.4105 -59.9362 -2.89202e-006 -2.14668e-007 -6.08396e-006 7.47066 54.1622 -6.12587 1.31664e-005 8.5304e-006 3 -8.02989 -4.95142 -0.697658 163.822 14.6728 4.49025 180 7.01451e-015 178.565 -171.195 38.602 176.359 -3.07233e-007 -1.92231e-007 2.76222 -29.1956 77.1229 31.7996 8.14788 28.2119 -0.209803 -159.633 17.9318 -6.80963 4.54188e-006 -4.6773e-006 -1.25599 3.21018 -44.1854 1.65502 -2.7869e-006 1.7228e-006 -2.47102 29.9644 77.3432 -32.4449 -8.10714 28.6349 -0.446619 
56.5703 88.3958 6.66232 -1.35298 -1.20105 -1.82627 0.399857 -1.48785 0.427946 0.80645 1.02975 0.814358 0.797202 2.67467 0.801246 -2.23454 9.9003 -2.56546 2.50454 -12.8462 -2.54891 26.982 -14.9212 -11.6103 2.87896 37.5993 90.2432 -5.2716e-006 6.48848e-007 -1.09249e-006 -3.28209 48.0913 2.88858 -5.95399e-006 -1.53422e-006 -3 8.02888 -4.95157 0.697755 -27.5262 -13.9243 10.4355 -28.2637 32.3344 -59.5541 -2.89202e-006 -2.14668e-007 -6.08396e-006 7.44325 54.0807 -6.08447 1.31664e-005 8.5304e-006 3 -8.02989 -4.95142 -0.697658 163.86 14.4075 4.54527 180 7.01452e-015 178.57 -171.584 37.7886 176.51 -3.07233e-007 -1.92227e-007 2.51666 -27.4179 76.1913 29.7904 8.1289 28.4922 0.109546 -159.53 17.5703 -6.86893 4.54188e-006 -4.6773e-006 -1.25759 2.92644 -43.2108 1.55404 -2.7869e-006 1.72278e-006 -2.2935 28.3671 76.5482 -30.6434 -8.09264 28.7938 -0.636781 
56.5751 88.7255 6.69615 -1.42002 -1.19352 -1.77899 0.410051 -1.50683 0.410498 0.826638 0.991728 0.77853 0.817823 2.63665 0.765057 -2.01507 10.0292 -2.58656 2.24999 -12.9135 -2.57251 27.3076 -14.8664 -11.5185 3.3625 37.6143 90.0456 -5.2716e-006 6.48848e-007 -1.09249e-006 -3.29718 48.1434 2.89076 -5.95399e-006 -1.53422e-006 -3 8.02888 -4.95157 0.697755 -27.6494 -13.8455 10.3386 -28.8199 32.2532 -59.178 -2.89202e-006 -2.14668e-007 -6.08396e-006 7.41794 54.0062 -6.04519 1.31664e-005 8.5304e-006 3 -8.02989 -4.95142 -0.697658 163.895 14.1422 4.59951 180 7.01454e-015 178.575 -171.962 36.9757 176.653 -3.07232e-007 -1.92219e-007 2.27596 -25.914 75.2664 28.0673 8.10847 28.7474 0.402506 -159.439 17.2107 -6.92104 4.54188e-006 -4.6773e-006 -1.25918 2.65048 -42.2407 1.45829 -2.7869e-006 1.72276e-006 -2.12109 27.0049 75.7642 -29.0851 -8.07894 28.9328 -0.803672 
56.6206 89.0875 6.77335 -1.47967 -1.18693 -1.73224 0.41819 -1.52503 0.39353 0.842702 0.955263 0.743865 0.834305 2.60018 0.730102 -1.8085 10.1418 -2.60781 2.01663 -12.9664 -2.59497 27.6304 -14.8144 -11.4307 3.87484 37.6348 89.8086 -5.2716e-006 6.48848e-007 -1.09249e-006 -3.30035 48.2245 2.88603 -5.95399e-006 -1.53422e-006 -3 8.02888 -4.95157 0.697755 -27.7796 -13.7689 10.2441 -29.3724 32.1669 -58.8087 -2.89202e-006 -2.14668e-007 -6.08396e-006 7.39466 53.9392 -6.00789 1.31664e-005 8.5304e-006 3 -8.02989 -4.95142 -0.697658 163.928 13.8768 4.65175 180 7.01456e-015 178.58 -172.326 36.1663 176.79 -3.07232e-007 -1.92209e-007 2.04393 -24.6495 74.3629 26.5951 8.08817 28.9698 0.659546 -159.362 16.8541 -6.96399 4.54188e-006 -4.6773e-006 -1.26064 2.38361 -41.2812 1.3678 -2.78689e-006 1.72272e-006 -1.95563 25.8492 75.0036 -27.7435 -8.06697 29.047 -0.941085 
56.6235 89.4258 6.78469 -1.53063 -1.18193 -1.68686 0.42394 -1.54217 0.377185 0.853979 0.92093 0.710683 0.845978 2.56585 0.69671 -1.61574 10.2346 -2.62893 1.80653 -13.0027 -2.61578 27.9497 -14.7658 -11.3474 4.41716 37.6619 89.5293 -5.2716e-006 6.48848e-007 -1.09249e-006 -3.29043 48.3356 2.87356 -5.95399e-006 -1.53422e-006 -3 8.02888 -4.95157 0.697755 -27.9167 -13.6956 10.1532 -29.9199 32.0755 -58.4469 -2.89202e-006 -2.14668e-007 -6.08396e-006 7.37333 53.88 -5.97242 1.31664e-005 8.5304e-006 3 -8.02989 -4.95142 -0.697658 163.961 13.6112 4.70072 180 7.01457e-015 178.585 -172.673 35.3637 176.92 -3.07231e-007 -1.92198e-007 1.82437 -23.5943 73.4952 25.3434 8.06982 29.1518 0.871023 -159.301 16.5018 -6.9958 4.54188e-006 -4.6773e-006 -1.26189 2.12707 -40.3383 1.28257 -2.78689e-006 1.72268e-006 -1.79898 24.8743 74.2785 -26.5953 -8.0577 29.1316 -1.04279 
56.5026 89.7513 6.68087 -1.5716 -1.17921 -1.6437 0.426967 -1.55795 0.361605 0.859806 0.8893 0.6793 0.852178 2.53423 0.665211 -1.43774 10.3042 -2.64966 1.62178 -13.0203 -2.63443 28.2647 -14.7212 -11.2694 4.99077 37.6967 89.204 -5.2716e-006 6.48848e-007 -1.09249e-006 -3.26624 48.4779 2.85247 -5.95399e-006 -1.53422e-006 -3 8.02888 -4.95157 0.697755 -28.0608 -13.6265 10.0673 -30.4609 31.9789 -58.0932 -2.89202e-006 -2.14668e-007 -6.08396e-006 7.35389 53.8292 -5.93862 1.31664e-005 8.5304e-006 3 -8.02989 -4.95142 -0.697658 163.993 13.3454 4.74519 180 7.01458e-015 178.589 -173 34.5711 177.045 -3.07231e-007 -1.92186e-007 1.62107 -22.7233 72.6773 24.2866 8.05531 29.2858 1.02725 -159.258 16.1547 -7.01454 4.54188e-006 -4.6773e-006 -1.26284 1.88208 -39.418 1.20256 -2.78689e-006 1.72263e-006 -1.65298 24.058 73.601 -25.6204 -8.05207 29.1816 -1.10259 
56.5632 90.1296 6.73911 -1.60127 -1.17943 -1.6036 0.426937 -1.57208 0.346934 0.859523 0.860946 0.650035 0.852238 2.50587 0.635934 -1.27544 10.3473 -2.66975 1.46446 -13.0169 -2.65044 28.5746 -14.6813 -11.1974 5.59699 37.7397 88.8294 -5.2716e-006 6.48848e-007 -1.09249e-006 -3.22652 48.6521 2.82186 -5.95399e-006 -1.53422e-006 -3 8.02888 -4.95157 0.697755 -28.2122 -13.5629 9.98753 -30.994 31.8771 -57.7483 -2.89202e-006 -2.14668e-007 -6.08396e-006 7.33628 53.7871 -5.90635 1.31664e-005 8.5304e-006 3 -8.02989 -4.95142 -0.697658 164.025 13.0793 4.78394 180 7.01459e-015 178.591 -173.305 33.7916 177.164 -3.0723e-007 -1.92175e-007 1.43783 -22.0162 71.923 23.4035 8.04644 29.3642 1.11856 -159.237 15.814 -7.01824 4.54188e-006 -4.6773e-006 -1.26339 1.64982 -38.5263 1.12775 -2.78689e-006 1.72258e-006 -1.51947 23.3816 72.9828 -24.8021 -8.05088 29.1922 -1.11431 
56.4866 90.4527 6.72322 -1.61832 -1.18326 -1.56741 0.423516 -1.5843 0.333315 0.852468 0.836439 0.623206 0.845494 2.48137 0.609208 -1.12979 10.3604 -2.68894 1.33664 -12.9904 -2.66328 28.8787 -14.6467 -11.1321 6.23733 37.7915 88.4017 -5.2716e-006 6.48848e-007 -1.09249e-006 -3.16994 48.8595 2.78077 -5.95399e-006 -1.53422e-006 -3 8.02888 -4.95157 0.697755 -28.3709 -13.5059 9.91514 -31.5179 31.7702 -57.4129 -2.89202e-006 -2.14668e-007 -6.08396e-006 7.32042 53.7542 -5.87547 1.31664e-005 8.5304e-006 3 -8.02989 -4.95142 -0.697658 164.058 12.8128 4.81573 180 7.01459e-015 178.592 -173.583 33.0285 177.278 -3.07229e-007 -1.92166e-007 1.27844 -21.4568 71.2459 22.6776 8.04473 29.3791 1.13545 -159.24 15.4809 -7.00498 4.54188e-006 -4.6773e-006 -1.26344 1.43144 -37.6694 1.05807 -2.78689e-006 1.72253e-006 -1.4003 22.8297 72.4353 -24.1272 -8.05477 29.1585 -1.07189 
